<svg xmlns="http://www.w3.org/2000/svg" viewBox="0 0 512 512"><rect width="512" height="512" rx="80" fill="#1A2B45"/><rect x="180" y="120" width="80" height="200" rx="8" fill="#2D4A7A"/><rect x="160" y="100" width="120" height="30" rx="6" fill="#2563EB"/><circle cx="230" cy="75" r="18" fill="rgba(148,163,184,0.6)"/><rect x="265" y="160" width="12" height="100" rx="4" fill="#F59E0B"/><rect x="252" y="255" width="38" height="12" rx="3" fill="#D97706"/><rect x="252" y="271" width="4" height="20" rx="2" fill="#78350F"/><rect x="260" y="271" width="4" height="22" rx="2" fill="#78350F"/><rect x="268" y="271" width="4" height="20" rx="2" fill="#78350F"/><rect x="276" y="271" width="4" height="22" rx="2" fill="#78350F"/><circle cx="380" cy="140" r="30" fill="#FCD34D" opacity="0.9"/><line x1="380" y1="95" x2="380" y2="80" stroke="#FCD34D" stroke-width="5" stroke-linecap="round"/><line x1="380" y1="185" x2="380" y2="200" stroke="#FCD34D" stroke-width="5" stroke-linecap="round"/><line x1="335" y1="140" x2="320" y2="140" stroke="#FCD34D" stroke-width="5" stroke-linecap="round"/><line x1="425" y1="140" x2="440" y2="140" stroke="#FCD34D" stroke-width="5" stroke-linecap="round"/><text x="256" y="440" font-family="Arial,sans-serif" font-size="52" font-weight="900" fill="#FFFFFF" text-anchor="middle" letter-spacing="2">GRIEER</text><text x="256" y="475" font-family="Arial,sans-serif" font-size="20" font-weight="500" fill="#94A3B8" text-anchor="middle" letter-spacing="3">ENERGIETECHNIK</text></svg>